<svg xmlns="http://www.w3.org/2000/svg" viewBox="0 0 512 512"><defs><style>.cls-1,.cls-4{fill:none;stroke:#fff;stroke-linecap:round;stroke-width:19px;}.cls-1{stroke-miterlimit:10;}.cls-2{fill:#fff;}.cls-3{fill:#55a2e0;}.cls-4{stroke-linejoin:round;}</style></defs><title>backlightingYes_selected</title><g id="backlighting"><g id="selected-6" data-name="selected"><g id="backlightingYes_selected"><line class="cls-1" x1="256" y1="45.42" x2="256" y2="10.08"/><line class="cls-1" x1="150.92" y1="73.57" x2="133.25" y2="42.97"/><line class="cls-1" x1="73.99" y1="150.5" x2="43.39" y2="132.83"/><line class="cls-1" x1="45.84" y1="255.58" x2="10.51" y2="255.58"/><line class="cls-1" x1="74" y1="360.66" x2="43.4" y2="378.33"/><line class="cls-1" x1="438" y1="360.65" x2="468.6" y2="378.32"/><line class="cls-1" x1="466.16" y1="255.57" x2="501.49" y2="255.57"/><line class="cls-1" x1="438" y1="150.49" x2="468.6" y2="132.83"/><line class="cls-1" x1="361.08" y1="73.57" x2="378.74" y2="42.97"/><g id="Layer_43_copy_3" data-name="Layer 43 copy 3"><path class="cls-2" d="M256,126a83.67,83.67,0,0,1,83.57,83.57V318.18a8.36,8.36,0,0,0,8.36,8.36h8.35a16.72,16.72,0,1,1,0,33.43H155.71a16.72,16.72,0,0,1,0-33.43h8.36a8.36,8.36,0,0,0,8.36-8.36V209.54A83.67,83.67,0,0,1,256,126m0-19A102.68,102.68,0,0,0,153.43,209.54v98.07A35.72,35.72,0,0,0,155.71,379H356.28a35.72,35.72,0,0,0,2.29-71.36V209.54A102.68,102.68,0,0,0,256,107Z"/><path class="cls-3" d="M356.28,360H155.71a16.72,16.72,0,0,1,0-33.43h8.36a8.36,8.36,0,0,0,8.36-8.36V209.54a83.57,83.57,0,1,1,167.14,0V318.18a8.36,8.36,0,0,0,8.36,8.36h8.35a16.72,16.72,0,1,1,0,33.43Z"/><path class="cls-2" d="M314.5,309.83h-117a8.36,8.36,0,1,0,0,16.71h117a8.36,8.36,0,1,0,0-16.71Z"/><line class="cls-4" x1="197.33" y1="373.95" x2="197.33" y2="502.43"/><line class="cls-4" x1="314.33" y1="373.95" x2="314.33" y2="468.71"/></g></g></g></g></svg>