<svg xmlns="http://www.w3.org/2000/svg" viewBox="0 0 512 512"><defs><style>.cls-1,.cls-6{fill:none;stroke-linecap:round;stroke-width:19px;}.cls-1{stroke:#ff5050;stroke-miterlimit:10;}.cls-2{fill:#ff5050;}.cls-3{fill:#ff6464;}.cls-4{fill:#eb3c3c;}.cls-5{fill:#fff;opacity:0.6;}.cls-6{stroke:#000;stroke-linejoin:round;}</style></defs><title>backlightingYes</title><g id="backlighting"><g id="backlightingYes"><line class="cls-1" x1="256" y1="51.42" x2="256" y2="16.09"/><line class="cls-1" x1="150.92" y1="79.58" x2="133.25" y2="48.98"/><line class="cls-1" x1="74" y1="156.5" x2="43.4" y2="138.84"/><line class="cls-1" x1="45.84" y1="261.58" x2="10.51" y2="261.58"/><line class="cls-1" x1="74" y1="366.66" x2="43.4" y2="384.33"/><line class="cls-1" x1="438.01" y1="366.66" x2="468.61" y2="384.33"/><line class="cls-1" x1="466.16" y1="261.58" x2="501.49" y2="261.58"/><line class="cls-1" x1="438" y1="156.5" x2="468.6" y2="138.83"/><line class="cls-1" x1="361.08" y1="79.58" x2="378.74" y2="48.98"/><g id="Layer_43" data-name="Layer 43"><path d="M256.5,131.74a81.11,81.11,0,0,1,81,81V318.06a8.09,8.09,0,0,0,8.1,8.1h8.1a16.21,16.21,0,0,1,0,32.41H159.29a16.21,16.21,0,0,1,0-32.41h8.1a8.09,8.09,0,0,0,8.1-8.1V212.75a81.11,81.11,0,0,1,81-81m0-19a100.13,100.13,0,0,0-100,100v94.52a35.21,35.21,0,0,0,2.8,70.3H353.71a35.21,35.21,0,0,0,2.8-70.3V212.75a100.13,100.13,0,0,0-100-100Z"/><path class="cls-2" d="M353.71,358.57H159.29a16.21,16.21,0,0,1,0-32.41h8.1a8.09,8.09,0,0,0,8.1-8.1V212.75a81,81,0,0,1,162,0V318.06a8.09,8.09,0,0,0,8.1,8.1h8.1a16.21,16.21,0,0,1,0,32.41Z"/><path class="cls-3" d="M175.49,212.75V318.06a8.09,8.09,0,0,1-8.1,8.1h-8.1a16.21,16.21,0,0,0,0,32.41h27.77c-6.38,0-11.57-7.27-11.57-16.21s5.19-16.2,11.57-16.2h5.79c3.2,0,5.79-3.62,5.79-8.1V212.75c0-44.66,26-81,57.86-81A81.11,81.11,0,0,0,175.49,212.75Z"/><path class="cls-4" d="M353.71,326.16h-8.1a8.09,8.09,0,0,1-8.1-8.1V212.75a81.11,81.11,0,0,0-81-81c31.9,0,57.86,36.35,57.86,81V318.06c0,4.48,2.59,8.1,5.79,8.1h5.79c6.38,0,11.57,7.27,11.57,16.2s-5.19,16.21-11.57,16.21h27.77a16.21,16.21,0,0,0,0-32.41Z"/><path class="cls-5" d="M313.21,310H199.79a8.1,8.1,0,1,0,0,16.2H313.21a8.1,8.1,0,0,0,0-16.2Z"/><line class="cls-6" x1="199.79" y1="372.11" x2="199.79" y2="496.65"/><line class="cls-6" x1="313.21" y1="372.11" x2="313.21" y2="463.97"/></g></g></g></svg>