<svg xmlns="http://www.w3.org/2000/svg" viewBox="0 0 512 512"><defs><style>.cls-1{fill:#b6b6b8;}.cls-2{fill:#a3a3a4;}.cls-3{fill:#fff;opacity:0.6;}.cls-4{fill:none;stroke:#000;stroke-linecap:round;stroke-linejoin:round;stroke-width:19px;}</style></defs><title>backlightingNo</title><g id="backlighting"><g id="backlightingNo"><g id="Layer_43_copy" data-name="Layer 43 copy"><path d="M256,126a83.67,83.67,0,0,1,83.57,83.57V318.18a8.36,8.36,0,0,0,8.36,8.36h8.36a16.72,16.72,0,0,1,0,33.43H155.71a16.72,16.72,0,0,1,0-33.43h8.36a8.36,8.36,0,0,0,8.36-8.36V209.54A83.67,83.67,0,0,1,256,126m0-19A102.68,102.68,0,0,0,153.43,209.54v98.07A35.72,35.72,0,0,0,155.71,379H356.29a35.72,35.72,0,0,0,2.28-71.36V209.54A102.68,102.68,0,0,0,256,107Z"/><path class="cls-1" d="M356.29,360H155.71a16.72,16.72,0,0,1,0-33.43h8.36a8.36,8.36,0,0,0,8.36-8.36V209.54a83.57,83.57,0,1,1,167.14,0V318.18a8.36,8.36,0,0,0,8.36,8.36h8.36a16.72,16.72,0,0,1,0,33.43Z"/><path class="cls-2" d="M356.29,326.54h-8.36a8.36,8.36,0,0,1-8.36-8.36V209.54A83.67,83.67,0,0,0,256,126c32.91,0,59.69,37.49,59.69,83.57V318.18c0,4.62,2.67,8.36,6,8.36h6c6.59,0,11.94,7.5,11.94,16.72S334.22,360,327.63,360h28.66a16.72,16.72,0,0,0,0-33.43Z"/><path class="cls-3" d="M313.42,309.83h-117a8.36,8.36,0,0,0,0,16.71h117a8.36,8.36,0,1,0,0-16.71Z"/><line class="cls-4" x1="196.42" y1="373.95" x2="196.42" y2="502.43"/><line class="cls-4" x1="313.42" y1="373.95" x2="313.42" y2="468.71"/></g><path d="M424.79,63.43a7.93,7.93,0,0,0-7.94-7.93H384.21l38.5-42.23A7.93,7.93,0,0,0,416.85,0h-50.6a7.93,7.93,0,0,0,0,15.86h32.64l-38.5,42.23a7.93,7.93,0,0,0,5.86,13.27h50.6a7.93,7.93,0,0,0,7.94-7.93Zm0,0"/><path d="M453.46,55.5H486.1L447.6,97.73A7.93,7.93,0,0,0,453.46,111h50.61a7.93,7.93,0,1,0,0-15.86H471.43l38.5-42.23a7.93,7.93,0,0,0-5.86-13.27H453.46a7.93,7.93,0,0,0,0,15.86Zm0,0"/><path d="M440.62,174.43a7.93,7.93,0,0,0-7.93-7.93H417.47l21.41-26.76a7.92,7.92,0,0,0-6.19-12.88H401a7.93,7.93,0,0,0,0,15.86h15.22l-21.41,26.76A7.93,7.93,0,0,0,401,182.36h31.72a7.93,7.93,0,0,0,7.93-7.93Zm0,0"/></g></g></svg>