<svg xmlns="http://www.w3.org/2000/svg" viewBox="0 0 512 512"><defs><style>.cls-1{fill:#55a2e0;}.cls-2{fill:#fff;}</style></defs><title>colorNo_selected</title><g id="color"><g id="selected-7" data-name="selected"><g id="colorNo_selected"><path class="cls-1" d="M38.92,384.36a27.84,27.84,0,0,1-27.8-27c0-.15,0-.31,0-.47v-183c0-.61,0-1.15,0-1.56,0-1.06,0-3.39,0-8.51V134.38a21.74,21.74,0,0,1,21.72-21.71H479.27a21.7,21.7,0,0,1,21.59,19.85,9.44,9.44,0,0,1,.07,1.2V356.9a27.5,27.5,0,0,1-27.47,27.46Z"/><path class="cls-2" d="M479.27,122.17a12.19,12.19,0,0,1,12.16,12.16V356.9a18,18,0,0,1-18,18H38.92a18.36,18.36,0,0,1-18.31-18.31v-147h0V201h0v-.95h0v-8.53h0V173.27h0c-.05,0,0-.46,0-9.48h0v-8.52h0V143.9h0v-1h0v-8.57a12.25,12.25,0,0,1,12.22-12.21H479.27m12.16,11.55v0m0,.61v0m-12.16-31.16H32.83A31.25,31.25,0,0,0,1.61,134.38v29.41c0,5.08,0,7.41,0,8.41,0,.46,0,1.14,0,2V356.89c0,.28,0,.56,0,.84a37.35,37.35,0,0,0,37.29,36.13H473.46a37,37,0,0,0,37-37V133.72a19.86,19.86,0,0,0-.12-2.2,31.21,31.21,0,0,0-31-28.35Z"/><path class="cls-2" d="M472.54,319.29a7.1,7.1,0,0,0,7.1-7.1V170a7.1,7.1,0,0,0-7.1-7.11H39.26A7.11,7.11,0,0,0,32.15,170V355.69a7.11,7.11,0,0,0,7.11,7.11H298.4a7.11,7.11,0,1,0,0-14.21H164.53v-29.3H347.26v29.3h-15.7a7.11,7.11,0,1,0,0,14.21h22.81a7.1,7.1,0,0,0,7.1-7.11v-36.4h38.31v7.54H374.06a7.1,7.1,0,0,0-7.1,7.11v21.75a7.1,7.1,0,0,0,7.1,7.11h98.48a7.1,7.1,0,0,0,7.1-7.11V333.94a7.1,7.1,0,0,0-7.1-7.11H446.82v-7.54Zm-72.76,29.3H381.17v-7.54h18.61Zm40.47-171.53h25.18v8.87H440.25Zm0,23.08h25.18v25.51H440.25Zm25.18,39.72v25.5H420.56v-25.5Zm-64.57-62.8H426v8.87H400.86Zm0,23.08H426v25.51H400.86Zm-39.39-23.08h25.18v8.87H361.47Zm0,23.08h25.18v25.51H361.47Zm-39.38-23.08h25.17v8.87H322.09Zm0,23.08h25.17v25.51H322.09ZM282.7,177.06h25.17v8.87H282.7Zm0,23.08h25.17v25.51H282.7Zm-39.39-23.08h25.17v8.87H243.31Zm0,23.08h25.17v25.51H243.31Zm-39.39-23.08H229.1v8.87H203.92Zm0,23.08H229.1v25.51H203.92Zm-39.39-23.08h25.18v8.87H164.53Zm0,23.08h25.18v25.51H164.53Zm-39.39-23.08h25.18v8.87H125.14Zm0,23.08h25.18v25.51H125.14ZM85.75,177.06h25.18v8.87H85.75Zm0,23.08h25.18v25.51H85.75ZM46.36,177.06H71.54v8.87H46.36Zm0,23.08H71.54v25.51H46.36Zm0,39.72H91.24v25.5H46.36ZM71.54,348.59H46.36v-29.3H71.54Zm39.39,0H85.75v-29.3h25.18Zm0-43.51H46.36V279.57h64.57Zm-5.48-39.72v-25.5h25.17v25.5Zm44.87,83.23H125.14v-29.3h25.18Zm0-43.51H125.14V279.57h25.18Zm-5.49-39.72v-25.5H170v25.5Zm44.88,39.72H164.53V279.57h25.18Zm-5.49-39.72v-25.5H209.4v25.5Zm44.88,39.72H203.92V279.57H229.1Zm-5.49-39.72v-25.5h25.18v25.5Zm44.87,39.72H243.31V279.57h25.17ZM263,265.36v-25.5h25.18v25.5H263Zm44.88,39.72H282.7V279.57h25.18Zm-5.49-39.72v-25.5h25.18v25.5H302.39Zm44.87,39.72H322.09V279.57h25.17Zm7.11-39.72H341.78v-25.5H367v25.5Zm32.28,39.72H361.47V279.57h25.18Zm-5.48-39.72v-25.5h25.18v25.5Zm51.44,83.23H414v-7.54h18.62Zm0-21.76H414v-7.54h18.62Zm32.82,14.22v7.54H446.82v-7.54Zm-64.57-36V279.57h64.57v25.51Z"/></g></g></g></svg>