<svg id="force" xmlns="http://www.w3.org/2000/svg" viewBox="0 0 512 512"><defs><style>.cls-1{fill:#ebebeb;}.cls-2{fill:#55a2e0;}.cls-3{fill:#418ecc;}</style></defs><title>forceLight</title><g id="forceLight"><rect class="cls-1" x="9.5" y="235.96" width="493" height="40.08" rx="0.5" ry="0.5"/><path d="M493,245.46v21.08H19V245.46H493m9-19H10a10,10,0,0,0-10,10v39.08a10,10,0,0,0,10,10H502a10,10,0,0,0,10-10V236.46a10,10,0,0,0-10-10Z"/><rect class="cls-2" x="48.88" y="147.35" width="59.77" height="217.31" rx="29.5" ry="29.5"/><path class="cls-3" d="M48.88,256v79.15a29.54,29.54,0,0,0,29.5,29.5h.77a29.53,29.53,0,0,0,29.5-29.5V256Z"/><path d="M79.15,156.85a20,20,0,0,1,20,20v158.3a20,20,0,0,1-20,20h-.77a20,20,0,0,1-20-20V176.85a20,20,0,0,1,20-20h.77m0-19h-.77a39.11,39.11,0,0,0-39,39v158.3a39.11,39.11,0,0,0,39,39h.77a39.11,39.11,0,0,0,39-39V176.85a39.11,39.11,0,0,0-39-39Z"/><rect class="cls-2" x="403.35" y="147.35" width="59.77" height="217.31" rx="29.5" ry="29.5"/><path class="cls-3" d="M403.35,256v79.15a29.53,29.53,0,0,0,29.5,29.5h.77a29.54,29.54,0,0,0,29.5-29.5V256Z"/><path d="M433.62,156.85a20,20,0,0,1,20,20v158.3a20,20,0,0,1-20,20h-.77a20,20,0,0,1-20-20V176.85a20,20,0,0,1,20-20h.77m0-19h-.77a39.11,39.11,0,0,0-39,39v158.3a39.11,39.11,0,0,0,39,39h.77a39.11,39.11,0,0,0,39-39V176.85a39.11,39.11,0,0,0-39-39Z"/></g></svg>