<svg id="force" xmlns="http://www.w3.org/2000/svg" viewBox="0 0 512 512"><defs><style>.cls-1{fill:#ebebeb;}.cls-2{fill:#55a2e0;}.cls-3{fill:#418ecc;}</style></defs><title>forceHeavy</title><g id="forceHeavy"><rect class="cls-1" x="9.5" y="235.96" width="493" height="40.08" rx="0.5" ry="0.5"/><path d="M493,245.46v21.08H19V245.46H493m9-19H10a10,10,0,0,0-10,10v39.08a10,10,0,0,0,10,10H502a10,10,0,0,0,10-10V236.46a10,10,0,0,0-10-10Z"/><rect class="cls-2" x="393.85" y="137.85" width="78.77" height="236.31" rx="39" ry="39"/><path class="cls-3" d="M393.85,335.15a39.11,39.11,0,0,0,39,39h.77a39.11,39.11,0,0,0,39-39V256H393.85Z"/><path d="M433.62,156.85a20,20,0,0,1,20,20v158.3a20,20,0,0,1-20,20h-.77a20,20,0,0,1-20-20V176.85a20,20,0,0,1,20-20h.77m0-19h-.77a39.11,39.11,0,0,0-39,39v158.3a39.11,39.11,0,0,0,39,39h.77a39.11,39.11,0,0,0,39-39V176.85a39.11,39.11,0,0,0-39-39Z"/><rect class="cls-2" x="334.08" y="98.46" width="78.77" height="315.08" rx="39" ry="39"/><path class="cls-3" d="M334.08,374.54a39.11,39.11,0,0,0,39,39h.77a39.11,39.11,0,0,0,39-39V256H334.08Z"/><path d="M373.85,117.46a20,20,0,0,1,20,20V374.54a20,20,0,0,1-20,20h-.77a20,20,0,0,1-20-20V137.46a20,20,0,0,1,20-20h.77m0-19h-.77a39.11,39.11,0,0,0-39,39V374.54a39.11,39.11,0,0,0,39,39h.77a39.11,39.11,0,0,0,39-39V137.46a39.11,39.11,0,0,0-39-39Z"/><rect class="cls-2" x="274.31" y="59.08" width="78.77" height="393.85" rx="39" ry="39"/><path class="cls-3" d="M274.31,413.92a39.11,39.11,0,0,0,39,39h.77a39.11,39.11,0,0,0,39-39V256H274.31Z"/><path d="M314.08,78.08a20,20,0,0,1,20,20V413.92a20,20,0,0,1-20,20h-.77a20,20,0,0,1-20-20V98.08a20,20,0,0,1,20-20h.77m0-19h-.77a39.11,39.11,0,0,0-39,39V413.92a39.11,39.11,0,0,0,39,39h.77a39.11,39.11,0,0,0,39-39V98.08a39.11,39.11,0,0,0-39-39Z"/><rect class="cls-2" x="39.38" y="137.85" width="78.77" height="236.31" rx="39" ry="39" transform="translate(157.54 512) rotate(-180)"/><path class="cls-3" d="M118.15,335.15a39.11,39.11,0,0,1-39,39h-.77a39.11,39.11,0,0,1-39-39V256h78.77Z"/><path d="M78.38,156.85h.77a20,20,0,0,1,20,20v158.3a20,20,0,0,1-20,20h-.77a20,20,0,0,1-20-20V176.85a20,20,0,0,1,20-20m0-19a39.11,39.11,0,0,0-39,39v158.3a39.11,39.11,0,0,0,39,39h.77a39.11,39.11,0,0,0,39-39V176.85a39.11,39.11,0,0,0-39-39Z"/><rect class="cls-2" x="99.15" y="98.46" width="78.77" height="315.08" rx="39" ry="39" transform="translate(277.08 512) rotate(-180)"/><path class="cls-3" d="M177.92,374.54a39.11,39.11,0,0,1-39,39h-.77a39.11,39.11,0,0,1-39-39V256h78.77Z"/><path d="M138.15,117.46h.77a20,20,0,0,1,20,20V374.54a20,20,0,0,1-20,20h-.77a20,20,0,0,1-20-20V137.46a20,20,0,0,1,20-20m0-19a39.11,39.11,0,0,0-39,39V374.54a39.11,39.11,0,0,0,39,39h.77a39.11,39.11,0,0,0,39-39V137.46a39.11,39.11,0,0,0-39-39Z"/><rect class="cls-2" x="158.92" y="59.08" width="78.77" height="393.85" rx="39" ry="39" transform="translate(396.62 512) rotate(-180)"/><path class="cls-3" d="M237.69,413.92a39.11,39.11,0,0,1-39,39h-.77a39.11,39.11,0,0,1-39-39V256h78.77Z"/><path d="M197.92,78.08h.77a20,20,0,0,1,20,20V413.92a20,20,0,0,1-20,20h-.77a20,20,0,0,1-20-20V98.08a20,20,0,0,1,20-20m0-19a39.11,39.11,0,0,0-39,39V413.92a39.11,39.11,0,0,0,39,39h.77a39.11,39.11,0,0,0,39-39V98.08a39.11,39.11,0,0,0-39-39Z"/></g></svg>