<svg id="force" xmlns="http://www.w3.org/2000/svg" viewBox="0 0 512 512"><defs><style>.cls-1{fill:#55a2e0;}.cls-2{fill:#fff;}</style></defs><title>forceUltra_selected</title><g id="selected"><g id="forceUltra_copy" data-name="forceUltra copy"><path class="cls-1" d="M461.12,291.13,427,325.27l8.53,34.13,42.67,8.53,25.6-25.6-8.54-34.13Z"/><path class="cls-1" d="M486.72,282.6a12,12,0,0,1-5.12-1.71c-3.41-2.56-4.27-8.53-1.71-11.94a34.72,34.72,0,0,0,6.83-20.48,34.14,34.14,0,1,0-68.27,0A34.72,34.72,0,0,0,425.28,269c2.56,3.41,1.71,9.38-1.71,11.94s-9.38,1.71-11.94-1.7c-6.83-8.54-10.24-19.63-10.24-30.72a51.2,51.2,0,0,1,102.4,0c0,11.09-3.42,22.18-10.24,30.72A7.77,7.77,0,0,1,486.72,282.6Z"/><path class="cls-1" d="M452.59,214.33c-5.12,0-8.54-3.41-8.54-8.53V86.33c0-5.12,3.42-8.53,8.54-8.53s8.53,3.41,8.53,8.53V205.8C461.12,210.92,457.71,214.33,452.59,214.33Z"/><path class="cls-2" d="M415.89,54.76l-176.64,186,11.1,50.34h14.5L456,92.31c11.09-12,9.39-29.87-2.56-40.11h0a28.66,28.66,0,0,0-37.55,2.56"/><path class="cls-1" d="M367.25,470.33H43A34.23,34.23,0,0,1,8.85,436.2h0A34.23,34.23,0,0,1,43,402.07H367.25a34.23,34.23,0,0,1,34.14,34.13h0a34.23,34.23,0,0,1-34.14,34.13"/><path class="cls-1" d="M218.77,148.63A25.61,25.61,0,0,0,194,129H102.72a25.14,25.14,0,0,0-25.6,25.6V291.13H250.35Z"/><path class="cls-1" d="M102.72,129H77.12a25.14,25.14,0,0,0-25.6,25.6V291.13h25.6V154.6a25.14,25.14,0,0,1,25.6-25.6"/><path class="cls-1" d="M341.65,291.13H77.12V402.07H316.05c4.27,0,7.68-2.56,9.39-6.83L351,309.05c3.41-8.53-1.71-17.92-9.39-17.92"/><path class="cls-1" d="M51.52,402.07h25.6V291.13H51.52Z"/><path class="cls-1" d="M365.55,291.13h-23.9c7.68,0,12.8,9.39,9.39,17.92l-25.6,86.19c-1.71,4.27-5.12,6.83-9.39,6.83h18.78c4.26,0,9.38-2.56,11.09-6.83l30.72-86.19c3.41-8.53-2.56-17.92-11.09-17.92"/><path class="cls-1" d="M77.12,436.2A34.14,34.14,0,1,1,43,402.07,34.23,34.23,0,0,1,77.12,436.2"/><path class="cls-1" d="M77.12,436.2c0,18.77-9.39,34.13-21.33,34.13S34.45,455,34.45,436.2s9.39-34.13,21.34-34.13,21.33,15.36,21.33,34.13"/><path class="cls-1" d="M401.39,436.2a34.14,34.14,0,1,1-34.14-34.13,34.23,34.23,0,0,1,34.14,34.13"/><path class="cls-1" d="M375.79,436.2c0,18.77-9.39,34.13-21.34,34.13S333.12,455,333.12,436.2s9.39-34.13,21.33-34.13,21.34,15.36,21.34,34.13"/><path class="cls-1" d="M136.85,77.8a25.67,25.67,0,0,0-25.6,25.6V129h51.2V103.4a25.67,25.67,0,0,0-25.6-25.6"/><path class="cls-1" d="M177,239.93H102.72c-5.12,0-8.53-3.41-8.53-8.53V188.73c0-5.12,3.41-8.53,8.53-8.53h61.44c3.41,0,6.83,2.56,8.53,6l11.95,42.67c1.71,6-2.56,11.09-7.68,11.09"/><path class="cls-2" d="M260.59,299.67H43V154.6a34.23,34.23,0,0,1,34.13-34.13h116a33.87,33.87,0,0,1,33.28,26.45h0ZM60.05,282.6h179.2L209.39,151.19h0a17.45,17.45,0,0,0-17.07-13.66H77.12A17.12,17.12,0,0,0,60.05,154.6Z"/><path class="cls-2" d="M334.83,410.6H43v-128H365.55q11.52,0,17.92,10.24c3.41,6,4.26,13.65.85,19.63l-30.72,87C350.19,406.33,342.51,410.6,334.83,410.6ZM60.05,393.53H334.83a4.44,4.44,0,0,0,3.41-1.7L369,305.64a4.12,4.12,0,0,0,0-3.41c0-.86-1.71-1.71-3.41-1.71H60.05Z"/><path class="cls-2" d="M177,248.47H102.72A17.12,17.12,0,0,1,85.65,231.4V188.73a17.12,17.12,0,0,1,17.07-17.06h61.44c7.68,0,14.51,5.12,16.21,11.94l11.95,42.67q2.56,7.68-2.56,15.36A15,15,0,0,1,177,248.47Zm-12.8-59.74H102.72V231.4H177Z"/><path class="cls-2" d="M196.59,333.8H51.52c-5.12,0-8.53-3.41-8.53-8.53s3.41-8.54,8.53-8.54H196.59c5.12,0,8.53,3.42,8.53,8.54S201.71,333.8,196.59,333.8Z"/><path class="cls-2" d="M247.79,367.93H51.52c-5.12,0-8.53-3.41-8.53-8.53s3.41-8.53,8.53-8.53H247.79c5.12,0,8.53,3.41,8.53,8.53S252.91,367.93,247.79,367.93Z"/><path class="cls-1" d="M264.85,299.67h-14.5a8.32,8.32,0,0,1-8.54-6.83l-11.09-50.35a6.89,6.89,0,0,1,2.56-7.68l175.79-186a35.7,35.7,0,0,1,48.64-3.42A36.43,36.43,0,0,1,471.36,71,35.86,35.86,0,0,1,462,98.28L270.83,297.11A9.27,9.27,0,0,1,264.85,299.67Zm-7.68-17.07h4.27L449.17,86.33c3.42-3.41,5.12-8.53,5.12-13.65a15.06,15.06,0,0,0-6.82-12.8,19.51,19.51,0,0,0-25.6,1.71h0L247.79,243.35Z"/><path class="cls-2" d="M367.25,478.87H43a42.67,42.67,0,1,1,0-85.34H367.25a42.67,42.67,0,1,1,0,85.34ZM43,410.6a25.6,25.6,0,0,0,0,51.2H367.25a25.6,25.6,0,1,0,0-51.2Z"/><path class="cls-2" d="M128.32,436.2c0,5.12-3.41,8.53-8.53,8.53s-8.54-3.41-8.54-8.53,3.42-8.53,8.54-8.53,8.53,3.41,8.53,8.53"/><path class="cls-2" d="M171,436.2c0,5.12-3.42,8.53-8.54,8.53s-8.53-3.41-8.53-8.53,3.41-8.53,8.53-8.53,8.54,3.41,8.54,8.53"/><path class="cls-2" d="M213.65,436.2c0,5.12-3.41,8.53-8.53,8.53s-8.53-3.41-8.53-8.53,3.41-8.53,8.53-8.53,8.53,3.41,8.53,8.53"/><path class="cls-2" d="M256.32,436.2c0,5.12-3.41,8.53-8.53,8.53s-8.54-3.41-8.54-8.53,3.42-8.53,8.54-8.53,8.53,3.41,8.53,8.53"/><path class="cls-2" d="M299,436.2c0,5.12-3.42,8.53-8.54,8.53s-8.53-3.41-8.53-8.53,3.41-8.53,8.53-8.53,8.54,3.41,8.54,8.53"/><path class="cls-2" d="M171,137.53H102.72V103.4a34.14,34.14,0,0,1,68.27,0Zm-51.2-17.06h34.13V103.4a17.07,17.07,0,1,0-34.13,0Z"/><path class="cls-2" d="M461.12,214.33c-5.12,0-8.53-3.41-8.53-8.53V86.33c0-5.12,3.41-8.53,8.53-8.53s8.53,3.41,8.53,8.53V205.8C469.65,210.92,466.24,214.33,461.12,214.33Z"/><path class="cls-2" d="M495.25,282.6a12.09,12.09,0,0,1-5.12-1.71c-3.41-2.56-4.26-8.53-1.7-11.94a34.78,34.78,0,0,0,6.82-20.48,34.13,34.13,0,1,0-68.26,0A34.78,34.78,0,0,0,433.81,269c2.56,3.41,1.71,9.38-1.7,11.94s-9.39,1.71-11.95-1.7c-6.83-8.54-10.24-19.63-10.24-30.72a51.2,51.2,0,0,1,102.4,0c0,11.09-3.41,22.18-10.24,30.72A7.77,7.77,0,0,1,495.25,282.6Z"/><path class="cls-2" d="M43,478.87a42.67,42.67,0,1,1,0-85.34,42.67,42.67,0,0,1,0,85.34Zm0-68.27a25.6,25.6,0,0,0,0,51.2,25.6,25.6,0,0,0,0-51.2Z"/><path class="cls-2" d="M367.25,478.87a42.67,42.67,0,1,1,42.67-42.67A42.25,42.25,0,0,1,367.25,478.87Zm0-68.27a25.6,25.6,0,1,0,25.6,25.6A25.15,25.15,0,0,0,367.25,410.6Z"/><path class="cls-2" d="M478.19,376.47h-1.71l-42.67-8.54a9.73,9.73,0,0,1-6.82-6l-8.54-34.13a6.88,6.88,0,0,1,2.56-7.68L455.15,286a9.07,9.07,0,0,1,10.24-1.7l34.13,17.06a6.44,6.44,0,0,1,4.27,6l8.53,34.13a6.89,6.89,0,0,1-2.56,7.68l-25.6,25.6A12.37,12.37,0,0,1,478.19,376.47Zm-35.84-24.75,33.28,6.83,18.77-18.78-6.83-25.6-24.74-12.8-26.46,26.46Z"/></g></g></svg>