<svg id="force" xmlns="http://www.w3.org/2000/svg" viewBox="0 0 512 512"><defs><style>.cls-1{fill:#55a2e0;}.cls-2{fill:#fff;}</style></defs><title>forceLight_selected</title><g id="selected"><g id="forceLight_copy" data-name="forceLight copy"><rect class="cls-1" x="9.82" y="235.96" width="493" height="40.08" rx="0.5" ry="0.5"/><path class="cls-2" d="M493.32,245.46v21.08h-474V245.46h474m9-19h-492a10,10,0,0,0-10,10v39.08a10,10,0,0,0,10,10h492a10,10,0,0,0,10-10V236.46a10,10,0,0,0-10-10Z"/><rect class="cls-1" x="49.2" y="147.35" width="59.77" height="217.31" rx="29.5" ry="29.5"/><path class="cls-2" d="M79.47,156.85a20,20,0,0,1,20,20v158.3a20,20,0,0,1-20,20H78.7a20,20,0,0,1-20-20V176.85a20,20,0,0,1,20-20h.77m0-19H78.7a39.11,39.11,0,0,0-39,39v158.3a39.11,39.11,0,0,0,39,39h.77a39.11,39.11,0,0,0,39-39V176.85a39.11,39.11,0,0,0-39-39Z"/><rect class="cls-1" x="403.67" y="147.35" width="59.77" height="217.31" rx="29.5" ry="29.5"/><path class="cls-2" d="M433.94,156.85a20,20,0,0,1,20,20v158.3a20,20,0,0,1-20,20h-.77a20,20,0,0,1-20-20V176.85a20,20,0,0,1,20-20h.77m0-19h-.77a39.11,39.11,0,0,0-39,39v158.3a39.11,39.11,0,0,0,39,39h.77a39.11,39.11,0,0,0,39-39V176.85a39.11,39.11,0,0,0-39-39Z"/></g></g></svg>