<svg id="force" xmlns="http://www.w3.org/2000/svg" viewBox="0 0 512 512"><defs><style>.cls-1{fill:#ff5050;}.cls-2{fill:#55a2e0;}.cls-3{fill:#505050;}.cls-4{fill:#9dd3fe;}.cls-5{fill:#418ecc;}.cls-6{fill:#fff;}.cls-7{fill:#ebebeb;}.cls-8{fill:#d7d7d7;}</style></defs><title>forceUltra</title><g id="forceUltra"><path class="cls-1" d="M460.8,291.13l-34.13,34.14,8.53,34.13,42.67,8.53,25.6-25.6-8.54-34.13Z"/><path class="cls-2" d="M486.4,282.6a12,12,0,0,1-5.12-1.71c-3.41-2.56-4.27-8.53-1.71-11.94a34.72,34.72,0,0,0,6.83-20.48,34.14,34.14,0,1,0-68.27,0A34.72,34.72,0,0,0,425,269c2.56,3.41,1.71,9.38-1.71,11.94s-9.38,1.71-11.94-1.7c-6.83-8.54-10.24-19.63-10.24-30.72a51.2,51.2,0,0,1,102.4,0c0,11.09-3.42,22.18-10.24,30.72A7.77,7.77,0,0,1,486.4,282.6Z"/><path class="cls-2" d="M452.27,214.33c-5.12,0-8.54-3.41-8.54-8.53V86.33c0-5.12,3.42-8.53,8.54-8.53s8.53,3.41,8.53,8.53V205.8C460.8,210.92,457.39,214.33,452.27,214.33Z"/><path class="cls-2" d="M415.57,54.76l-176.64,186L250,291.13h14.5L455.68,92.31c11.09-12,9.39-29.87-2.56-40.11h0a28.66,28.66,0,0,0-37.55,2.56"/><path class="cls-3" d="M366.93,470.33H42.67A34.23,34.23,0,0,1,8.53,436.2h0a34.23,34.23,0,0,1,34.14-34.13H366.93a34.23,34.23,0,0,1,34.14,34.13h0a34.23,34.23,0,0,1-34.14,34.13"/><path class="cls-2" d="M218.45,148.63A25.61,25.61,0,0,0,193.71,129H102.4a25.14,25.14,0,0,0-25.6,25.6V291.13H250Z"/><path class="cls-4" d="M102.4,129H76.8a25.14,25.14,0,0,0-25.6,25.6V291.13H76.8V154.6A25.14,25.14,0,0,1,102.4,129"/><path class="cls-2" d="M341.33,291.13H76.8V402.07H315.73c4.27,0,7.68-2.56,9.39-6.83l25.6-86.19c3.41-8.53-1.71-17.92-9.39-17.92"/><path class="cls-4" d="M51.2,402.07H76.8V291.13H51.2Z"/><path class="cls-5" d="M365.23,291.13h-23.9c7.68,0,12.8,9.39,9.39,17.92l-25.6,86.19c-1.71,4.27-5.12,6.83-9.39,6.83h18.78c4.26,0,9.38-2.56,11.09-6.83l30.72-86.19c3.41-8.53-2.56-17.92-11.09-17.92"/><path class="cls-6" d="M76.8,436.2a34.14,34.14,0,1,1-34.13-34.13A34.23,34.23,0,0,1,76.8,436.2"/><path class="cls-7" d="M76.8,436.2c0,18.77-9.39,34.13-21.33,34.13S34.13,455,34.13,436.2s9.39-34.13,21.34-34.13S76.8,417.43,76.8,436.2"/><path class="cls-8" d="M401.07,436.2a34.14,34.14,0,1,1-34.14-34.13,34.23,34.23,0,0,1,34.14,34.13"/><path class="cls-7" d="M375.47,436.2c0,18.77-9.39,34.13-21.34,34.13S332.8,455,332.8,436.2s9.39-34.13,21.33-34.13,21.34,15.36,21.34,34.13"/><path class="cls-2" d="M136.53,77.8a25.67,25.67,0,0,0-25.6,25.6V129h51.2V103.4a25.67,25.67,0,0,0-25.6-25.6"/><path class="cls-6" d="M176.64,239.93H102.4c-5.12,0-8.53-3.41-8.53-8.53V188.73c0-5.12,3.41-8.53,8.53-8.53h61.44c3.41,0,6.83,2.56,8.53,6l11.95,42.67c1.71,6-2.56,11.09-7.68,11.09"/><path d="M260.27,299.67H42.67V154.6A34.23,34.23,0,0,1,76.8,120.47H192.85a33.87,33.87,0,0,1,33.28,26.45h0ZM59.73,282.6h179.2L209.07,151.19h0A17.45,17.45,0,0,0,192,137.53H76.8A17.12,17.12,0,0,0,59.73,154.6Z"/><path d="M334.51,410.6H42.67v-128H365.23q11.52,0,17.92,10.24c3.41,6,4.26,13.65.85,19.63l-30.72,87C349.87,406.33,342.19,410.6,334.51,410.6ZM59.73,393.53H334.51a4.44,4.44,0,0,0,3.41-1.7l30.72-86.19a4.12,4.12,0,0,0,0-3.41c0-.86-1.71-1.71-3.41-1.71H59.73Z"/><path d="M176.64,248.47H102.4A17.12,17.12,0,0,1,85.33,231.4V188.73a17.12,17.12,0,0,1,17.07-17.06h61.44c7.68,0,14.51,5.12,16.21,11.94L192,226.28q2.56,7.68-2.56,15.36A15,15,0,0,1,176.64,248.47Zm-12.8-59.74H102.4V231.4h74.24Z"/><path d="M196.27,333.8H51.2c-5.12,0-8.53-3.41-8.53-8.53s3.41-8.54,8.53-8.54H196.27c5.12,0,8.53,3.42,8.53,8.54S201.39,333.8,196.27,333.8Z"/><path d="M247.47,367.93H51.2c-5.12,0-8.53-3.41-8.53-8.53s3.41-8.53,8.53-8.53H247.47c5.12,0,8.53,3.41,8.53,8.53S252.59,367.93,247.47,367.93Z"/><path d="M264.53,299.67H250a8.32,8.32,0,0,1-8.54-6.83L230.4,242.49a6.89,6.89,0,0,1,2.56-7.68l175.79-186a35.7,35.7,0,0,1,48.64-3.42A36.43,36.43,0,0,1,471,71a35.86,35.86,0,0,1-9.39,27.31L270.51,297.11A9.27,9.27,0,0,1,264.53,299.67Zm-7.68-17.07h4.27L448.85,86.33c3.42-3.41,5.12-8.53,5.12-13.65a15.06,15.06,0,0,0-6.82-12.8,19.51,19.51,0,0,0-25.6,1.71h0L247.47,243.35Z"/><path d="M366.93,478.87H42.67a42.67,42.67,0,1,1,0-85.34H366.93a42.67,42.67,0,0,1,0,85.34ZM42.67,410.6a25.6,25.6,0,0,0,0,51.2H366.93a25.6,25.6,0,0,0,0-51.2Z"/><path class="cls-7" d="M128,436.2c0,5.12-3.41,8.53-8.53,8.53s-8.54-3.41-8.54-8.53,3.42-8.53,8.54-8.53,8.53,3.41,8.53,8.53"/><path class="cls-7" d="M170.67,436.2c0,5.12-3.42,8.53-8.54,8.53s-8.53-3.41-8.53-8.53,3.41-8.53,8.53-8.53,8.54,3.41,8.54,8.53"/><path class="cls-7" d="M213.33,436.2c0,5.12-3.41,8.53-8.53,8.53s-8.53-3.41-8.53-8.53,3.41-8.53,8.53-8.53,8.53,3.41,8.53,8.53"/><path class="cls-7" d="M256,436.2c0,5.12-3.41,8.53-8.53,8.53s-8.54-3.41-8.54-8.53,3.42-8.53,8.54-8.53,8.53,3.41,8.53,8.53"/><path class="cls-7" d="M298.67,436.2c0,5.12-3.42,8.53-8.54,8.53s-8.53-3.41-8.53-8.53,3.41-8.53,8.53-8.53,8.54,3.41,8.54,8.53"/><path d="M170.67,137.53H102.4V103.4a34.14,34.14,0,0,1,68.27,0Zm-51.2-17.06H153.6V103.4a17.07,17.07,0,1,0-34.13,0Z"/><path d="M460.8,214.33c-5.12,0-8.53-3.41-8.53-8.53V86.33c0-5.12,3.41-8.53,8.53-8.53s8.53,3.41,8.53,8.53V205.8C469.33,210.92,465.92,214.33,460.8,214.33Z"/><path d="M494.93,282.6a12.09,12.09,0,0,1-5.12-1.71c-3.41-2.56-4.26-8.53-1.7-11.94a34.78,34.78,0,0,0,6.82-20.48,34.13,34.13,0,1,0-68.26,0A34.78,34.78,0,0,0,433.49,269c2.56,3.41,1.71,9.38-1.7,11.94s-9.39,1.71-12-1.7c-6.83-8.54-10.24-19.63-10.24-30.72a51.2,51.2,0,1,1,102.4,0c0,11.09-3.41,22.18-10.24,30.72A7.77,7.77,0,0,1,494.93,282.6Z"/><path d="M42.67,478.87a42.67,42.67,0,1,1,0-85.34,42.67,42.67,0,0,1,0,85.34Zm0-68.27a25.6,25.6,0,0,0,0,51.2,25.6,25.6,0,0,0,0-51.2Z"/><path d="M366.93,478.87A42.67,42.67,0,1,1,409.6,436.2,42.25,42.25,0,0,1,366.93,478.87Zm0-68.27a25.6,25.6,0,1,0,25.6,25.6A25.15,25.15,0,0,0,366.93,410.6Z"/><path d="M477.87,376.47h-1.71l-42.67-8.54a9.73,9.73,0,0,1-6.82-6l-8.54-34.13a6.88,6.88,0,0,1,2.56-7.68L454.83,286a9.07,9.07,0,0,1,10.24-1.7l34.13,17.06a6.44,6.44,0,0,1,4.27,6L512,341.48a6.89,6.89,0,0,1-2.56,7.68l-25.6,25.6A12.37,12.37,0,0,1,477.87,376.47ZM442,351.72l33.28,6.83,18.77-18.78-6.83-25.6-24.74-12.8-26.46,26.46Z"/></g></svg>