<svg id="force" xmlns="http://www.w3.org/2000/svg" viewBox="0 0 512 512"><defs><style>.cls-1{fill:#55a2e0;}.cls-2{fill:#fff;}</style></defs><title>forceMed_selected</title><g id="selected"><g id="forceMed_copy" data-name="forceMed copy"><rect class="cls-1" x="9.82" y="235.96" width="493" height="40.08" rx="0.5" ry="0.5"/><path class="cls-2" d="M493.32,245.46v21.08h-474V245.46h474m9-19h-492a10,10,0,0,0-10,10v39.08a10,10,0,0,0,10,10h492a10,10,0,0,0,10-10V236.46a10,10,0,0,0-10-10Z"/><rect class="cls-1" x="39.7" y="137.85" width="78.77" height="236.31" rx="39" ry="39"/><path class="cls-2" d="M79.47,156.85a20,20,0,0,1,20,20v158.3a20,20,0,0,1-20,20H78.7a20,20,0,0,1-20-20V176.85a20,20,0,0,1,20-20h.77m0-19H78.7a39.11,39.11,0,0,0-39,39v158.3a39.11,39.11,0,0,0,39,39h.77a39.11,39.11,0,0,0,39-39V176.85a39.11,39.11,0,0,0-39-39Z"/><rect class="cls-1" x="99.47" y="98.46" width="78.77" height="315.08" rx="39" ry="39"/><path class="cls-2" d="M139.24,117.46a20,20,0,0,1,20,20V374.54a20,20,0,0,1-20,20h-.77a20,20,0,0,1-20-20V137.46a20,20,0,0,1,20-20h.77m0-19h-.77a39.11,39.11,0,0,0-39,39V374.54a39.11,39.11,0,0,0,39,39h.77a39.11,39.11,0,0,0,39-39V137.46a39.11,39.11,0,0,0-39-39Z"/><rect class="cls-1" x="394.17" y="137.85" width="78.77" height="236.31" rx="39" ry="39"/><path class="cls-2" d="M433.94,156.85a20,20,0,0,1,20,20v158.3a20,20,0,0,1-20,20h-.77a20,20,0,0,1-20-20V176.85a20,20,0,0,1,20-20h.77m0-19h-.77a39.11,39.11,0,0,0-39,39v158.3a39.11,39.11,0,0,0,39,39h.77a39.11,39.11,0,0,0,39-39V176.85a39.11,39.11,0,0,0-39-39Z"/><rect class="cls-1" x="334.4" y="98.46" width="78.77" height="315.08" rx="39" ry="39"/><path class="cls-2" d="M374.17,117.46a20,20,0,0,1,20,20V374.54a20,20,0,0,1-20,20h-.77a20,20,0,0,1-20-20V137.46a20,20,0,0,1,20-20h.77m0-19h-.77a39.11,39.11,0,0,0-39,39V374.54a39.11,39.11,0,0,0,39,39h.77a39.11,39.11,0,0,0,39-39V137.46a39.11,39.11,0,0,0-39-39Z"/></g></g></svg>