<svg id="force" xmlns="http://www.w3.org/2000/svg" viewBox="0 0 512 512"><defs><style>.cls-1{fill:#55a2e0;}.cls-2{fill:#fff;}</style></defs><title>forceHeavy_selected</title><g id="selected"><g id="forceHeavy_copy" data-name="forceHeavy copy"><rect class="cls-1" x="9.82" y="235.96" width="493" height="40.08" rx="0.5" ry="0.5"/><path class="cls-2" d="M493.32,245.46v21.08h-474V245.46h474m9-19h-492a10,10,0,0,0-10,10v39.08a10,10,0,0,0,10,10h492a10,10,0,0,0,10-10V236.46a10,10,0,0,0-10-10Z"/><rect class="cls-1" x="394.17" y="137.85" width="78.77" height="236.31" rx="39" ry="39"/><path class="cls-2" d="M433.94,156.85a20,20,0,0,1,20,20v158.3a20,20,0,0,1-20,20h-.77a20,20,0,0,1-20-20V176.85a20,20,0,0,1,20-20h.77m0-19h-.77a39.11,39.11,0,0,0-39,39v158.3a39.11,39.11,0,0,0,39,39h.77a39.11,39.11,0,0,0,39-39V176.85a39.11,39.11,0,0,0-39-39Z"/><rect class="cls-1" x="334.4" y="98.46" width="78.77" height="315.08" rx="39" ry="39"/><path class="cls-2" d="M374.17,117.46a20,20,0,0,1,20,20V374.54a20,20,0,0,1-20,20h-.77a20,20,0,0,1-20-20V137.46a20,20,0,0,1,20-20h.77m0-19h-.77a39.11,39.11,0,0,0-39,39V374.54a39.11,39.11,0,0,0,39,39h.77a39.11,39.11,0,0,0,39-39V137.46a39.11,39.11,0,0,0-39-39Z"/><rect class="cls-1" x="274.63" y="59.08" width="78.77" height="393.85" rx="39" ry="39"/><path class="cls-2" d="M314.4,78.08a20,20,0,0,1,20,20V413.92a20,20,0,0,1-20,20h-.77a20,20,0,0,1-20-20V98.08a20,20,0,0,1,20-20h.77m0-19h-.77a39.11,39.11,0,0,0-39,39V413.92a39.11,39.11,0,0,0,39,39h.77a39.11,39.11,0,0,0,39-39V98.08a39.11,39.11,0,0,0-39-39Z"/><rect class="cls-1" x="39.7" y="137.85" width="78.77" height="236.31" rx="39" ry="39" transform="translate(158.18 512) rotate(-180)"/><path class="cls-2" d="M78.7,156.85h.77a20,20,0,0,1,20,20v158.3a20,20,0,0,1-20,20H78.7a20,20,0,0,1-20-20V176.85a20,20,0,0,1,20-20m0-19a39.11,39.11,0,0,0-39,39v158.3a39.11,39.11,0,0,0,39,39h.77a39.11,39.11,0,0,0,39-39V176.85a39.11,39.11,0,0,0-39-39Z"/><rect class="cls-1" x="99.47" y="98.46" width="78.77" height="315.08" rx="39" ry="39" transform="translate(277.72 512) rotate(-180)"/><path class="cls-2" d="M138.47,117.46h.77a20,20,0,0,1,20,20V374.54a20,20,0,0,1-20,20h-.77a20,20,0,0,1-20-20V137.46a20,20,0,0,1,20-20m0-19a39.11,39.11,0,0,0-39,39V374.54a39.11,39.11,0,0,0,39,39h.77a39.11,39.11,0,0,0,39-39V137.46a39.11,39.11,0,0,0-39-39Z"/><rect class="cls-1" x="159.24" y="59.08" width="78.77" height="393.85" rx="39" ry="39" transform="translate(397.26 512) rotate(-180)"/><path class="cls-2" d="M198.24,78.08H199a20,20,0,0,1,20,20V413.92a20,20,0,0,1-20,20h-.77a20,20,0,0,1-20-20V98.08a20,20,0,0,1,20-20m0-19a39.11,39.11,0,0,0-39,39V413.92a39.11,39.11,0,0,0,39,39H199a39.11,39.11,0,0,0,39-39V98.08a39.11,39.11,0,0,0-39-39Z"/></g></g></svg>