<svg xmlns="http://www.w3.org/2000/svg" viewBox="0 0 512 512"><defs><style>.cls-1{fill:#55a2e0;stroke-width:19px;}.cls-1,.cls-3,.cls-4{stroke:#000;stroke-linejoin:round;}.cls-2{fill:#418ecc;}.cls-3{fill:#ebebeb;}.cls-3,.cls-4{stroke-width:13px;}.cls-4{fill:#ff5050;}</style></defs><title>macrosYes</title><g id="macros"><g id="macrosYes"><path class="cls-1" d="M318.21,138.36a143.69,143.69,0,0,0-13.38-33.44L316.3,78.16,276.17,39,249.42,50.46C238.91,44.72,228.4,40,216,37.08L206.42,9.37H150.05L139.54,37.08A143.87,143.87,0,0,0,106.1,50.46L79.35,39,40.18,78.16l11.46,26.76c-5.73,10.51-10.51,21-13.37,33.44L10.56,148.87v56.37l27.71,10.51a143.83,143.83,0,0,0,13.37,33.44L40.18,275.94l40.13,39.17,26.75-11.46c10.51,5.73,21,10.51,33.44,13.37L151,344.73h55.41L216.93,317a143.66,143.66,0,0,0,33.44-13.37l26.76,11.46,40.12-39.17-11.46-26.75c5.73-10.51,10.51-21,13.37-33.44l27.71-10.51V148.87Zm-140.45,107a68.79,68.79,0,1,1,68.79-68.79A68.5,68.5,0,0,1,177.76,245.36Z"/><path class="cls-2" d="M226.8,225.66a68.55,68.55,0,0,1-97.21,0l-25,25c40.42,40.43,106.83,40.43,147.26,0s40.42-105.87,0-147.26l-25,25A68.55,68.55,0,0,1,226.8,225.66Z"/><path class="cls-2" d="M104.57,103.42c-40.43,40.42-40.43,105.87,0,147.26l25-25a68.74,68.74,0,0,1,97.21-97.21l25-25C211.4,63,145,63,104.57,103.42Z"/><path class="cls-3" d="M349.05,435.72a47.05,47.05,0,0,0,0-16.4l9.64-9.64-9.64-24.12H335.54c-2.89-3.86-7.71-7.72-11.57-11.57V360.48l-24.12-9.65-9.64,9.65a47.05,47.05,0,0,0-16.4,0l-9.65-9.65-24.11,9.65V374c-3.86,2.89-7.72,7.71-11.58,11.57H215l-9.65,24.12,9.65,9.64a47.05,47.05,0,0,0,0,16.4l-9.65,9.65L215,469.48h13.5c2.9,3.86,7.72,7.72,11.58,11.58v13.5l24.11,9.65,9.65-9.65a47.05,47.05,0,0,0,16.4,0l9.64,9.65L324,494.56v-13.5c3.86-2.9,7.72-7.72,11.57-11.58h13.51l9.64-24.11ZM271.88,456c-16.4-6.76-24.11-25.08-17.36-40.52,6.75-16.4,25.08-24.11,40.51-17.36,16.4,6.75,24.12,25.08,17.36,40.51C305.64,455,287.31,462.73,271.88,456Z"/><path class="cls-4" d="M495.28,286.81a45.14,45.14,0,0,0,0-15.81l9.31-9.31-9.31-23.25h-13c-2.79-3.73-7.45-7.45-11.17-11.17v-13l-23.26-9.31-9.3,9.31a45.14,45.14,0,0,0-15.81,0l-9.31-9.31-23.26,9.31v13c-3.72,2.79-7.44,7.44-11.16,11.17H366l-9.3,23.25L366,271a45.14,45.14,0,0,0,0,15.81l-9.3,9.31,9.3,23.26h13c2.79,3.72,7.44,7.44,11.16,11.16v13l23.26,9.31,9.31-9.31a45.14,45.14,0,0,0,15.81,0l9.3,9.31,23.26-9.31v-13c3.72-2.79,7.45-7.44,11.17-11.16h13l9.31-23.26Zm-75.36,20.47c-15.81-6.51-23.25-24.19-16.74-39.07,6.51-15.82,24.19-23.26,39.07-16.75,15.82,6.51,23.26,24.19,16.75,39.08C453.42,306.35,435.74,313.79,419.92,307.28Z"/><path d="M177.76,117.51a59.07,59.07,0,1,1-59.06,59.06,59.06,59.06,0,0,1,59.06-59.06m0-19a78.07,78.07,0,1,0,78.06,78.06,78.15,78.15,0,0,0-78.06-78.06Z"/></g></g></svg>