<svg xmlns="http://www.w3.org/2000/svg" viewBox="0 0 512 512"><defs><style>.cls-1{fill:#55a2e0;}.cls-2,.cls-4{fill:none;stroke:#fff;stroke-linejoin:round;stroke-width:19px;}.cls-3{fill:#6f4bef;}.cls-4{stroke-linecap:round;}.cls-5{fill:#fff;}</style></defs><title>macrosNo_selected</title><g id="macros"><g id="selected-5" data-name="selected"><g id="macrosNo_selected"><path class="cls-1" d="M449.44,78.88A77.94,77.94,0,0,0,403.18,7.67V68a12.1,12.1,0,0,1-12.1,12.1H351.93A12.11,12.11,0,0,1,339.82,68V7.67a77.93,77.93,0,0,0-.65,142.12L328.51,388.36a43,43,0,0,0,43,44.95h0a43,43,0,0,0,43-45.25L402.23,150.51A77.94,77.94,0,0,0,449.44,78.88Z"/><path class="cls-2" d="M447.72,80.45A77.23,77.23,0,0,0,401.87,9.88V69.62a12,12,0,0,1-12,12H351.08a12,12,0,0,1-12-12V9.88a77.24,77.24,0,0,0-.65,140.85L327.87,387.18a42.64,42.64,0,0,0,42.61,44.55h0a42.65,42.65,0,0,0,42.59-44.84L400.93,151.45A77.25,77.25,0,0,0,447.72,80.45Z"/><path class="cls-1" d="M189.4,473.09l10,9.68a77,77,0,0,0,53.43,21.56h183a25.73,25.73,0,1,0,0-51.45h0a25.73,25.73,0,0,0,25.73-25.72v-1a25.73,25.73,0,0,0-25.73-25.73h0a25.73,25.73,0,0,0,25.73-25.72v-.18a25.72,25.72,0,0,0-25.73-25.72h0a25.73,25.73,0,0,0,25.73-25.73v-.83a25.73,25.73,0,0,0-25.73-25.73H332.61c0-30.19,2.18-50.11,2.67-78.24.12-6.85,0-14,0-22.8a23.59,23.59,0,0,0-23.58-23.6h0a22.38,22.38,0,0,0-22.87,22.45,14.25,14.25,0,0,1-.73,4.24c-4,12.23-14.24,36.26-34.24,65.8-10.18,15-26.18,27.93-32,32.63A196.07,196.07,0,0,1,189.4,318.4h0V473.09Z"/><path class="cls-1" d="M174.71,504.33H50.35V296.51H174.7a14.7,14.7,0,0,1,14.7,14.7V489.63A14.7,14.7,0,0,1,174.71,504.33Z"/><circle class="cls-3" cx="137.27" cy="343.74" r="10.74"/><path class="cls-2" d="M190,471.15l9.95,9.6a76.31,76.31,0,0,0,53,21.37H434.32a25.5,25.5,0,1,0,0-51h0a25.5,25.5,0,0,0,25.5-25.5v-1a25.49,25.49,0,0,0-25.5-25.49h0a25.5,25.5,0,0,0,25.5-25.5v-.17a25.5,25.5,0,0,0-25.5-25.5h0a25.49,25.49,0,0,0,25.5-25.5v-.82a25.5,25.5,0,0,0-25.5-25.5H331.93c0-29.92,2.16-49.66,2.65-77.55.12-6.79,0-13.84-.05-22.59a23.37,23.37,0,0,0-23.36-23.39h0a22.17,22.17,0,0,0-22.67,22.25,14.3,14.3,0,0,1-.72,4.2c-4,12.12-14.12,35.94-33.94,65.22-10.09,14.89-26,27.68-31.67,32.33A194.59,194.59,0,0,1,190,317.85h0v153.3Z"/><path class="cls-4" d="M175.43,502.12H52.18v-206H175.43A14.57,14.57,0,0,1,190,310.72V487.55A14.57,14.57,0,0,1,175.43,502.12Z"/><circle class="cls-5" cx="137.27" cy="343.74" r="10.74"/></g></g></g></svg>