<svg xmlns="http://www.w3.org/2000/svg" viewBox="0 0 512 512"><defs><style>.cls-1{fill:#55a2e0;}.cls-2{fill:#fff;}.cls-3{fill:none;stroke:#fff;stroke-miterlimit:10;stroke-width:19px;}</style></defs><title>noiseQuiet_selected</title><g id="noise"><g id="selected-2" data-name="selected"><g id="noiseQuiet_copy" data-name="noiseQuiet copy"><path class="cls-1" d="M115.21,412.56a22.8,22.8,0,0,1-22.55-19.05l-17-102.75,45-2.61,16.57,98.39a22.36,22.36,0,0,1-22,26Z"/><path class="cls-2" d="M112.73,298.13l15.15,90a12.85,12.85,0,0,1-12.67,15,13.55,13.55,0,0,1-3.09-.35A13.39,13.39,0,0,1,102,391.94L86.79,299.63l25.94-1.5m15.91-19.95-64,3.71L83.3,395.1a32.31,32.31,0,0,0,24.44,26.09A31.9,31.9,0,0,0,146.62,385l-18-106.79Z"/><path class="cls-1" d="M287.44,137.12V340.4a10.78,10.78,0,0,1-14.31,10.21c-42.48-14.59-69.22-25.38-122.27-32.28l-7.18-14.88V174.07l7.18-14.88c52.91-6.9,79.15-17.47,122.27-32.28A10.78,10.78,0,0,1,287.44,137.12Z"/><path class="cls-1" d="M53.83,292.67a53.91,53.91,0,0,1,0-107.82,10.78,10.78,0,0,1,10.78,10.78v86.26A10.78,10.78,0,0,1,53.83,292.67Z"/><path class="cls-2" d="M45.61,204.83v67.86a34.91,34.91,0,0,1,0-67.86m8.22-20a53.91,53.91,0,0,0,0,107.82,10.78,10.78,0,0,0,10.78-10.78V195.63a10.78,10.78,0,0,0-10.78-10.78Z"/><path class="cls-1" d="M150.86,159.19V318.33c-34.79-4.53-56.49-4.09-75.47-4.09A32.4,32.4,0,0,1,43,281.89V195.63a32.39,32.39,0,0,1,32.35-32.34C94.08,163.29,116,163.72,150.86,159.19Z"/><path class="cls-2" d="M268.44,148.64V328.88l-3-1c-35.3-12.28-63.18-22-112.15-28.35a493.2,493.2,0,0,0-68.57-4.27H75.39A13.37,13.37,0,0,1,62,281.89V195.63a13.36,13.36,0,0,1,13.35-13.34h9.26A494.89,494.89,0,0,0,153.32,178c48.92-6.38,76.82-16.08,112.15-28.36l3-1m8.25-22.33a11,11,0,0,0-3.56.6c-43.12,14.81-69.36,25.38-122.27,32.28a476.56,476.56,0,0,1-66.21,4.11H75.39A32.39,32.39,0,0,0,43,195.63v86.26a32.4,32.4,0,0,0,32.35,32.35l9.36,0a473.81,473.81,0,0,1,66.11,4.11c53,6.9,79.79,17.69,122.27,32.28a10.91,10.91,0,0,0,3.56.6,10.79,10.79,0,0,0,10.75-10.81V137.12a10.79,10.79,0,0,0-10.75-10.81Z"/><path class="cls-1" d="M298.22,98.59a32.4,32.4,0,0,0-32.35,32.35V346.58a32.35,32.35,0,1,0,64.7,0V130.94A32.4,32.4,0,0,0,298.22,98.59Z"/><path class="cls-2" d="M298.22,117.59a13.37,13.37,0,0,1,13.35,13.35V346.58a13.35,13.35,0,0,1-26.7,0V130.94a13.37,13.37,0,0,1,13.35-13.35m0-19a32.4,32.4,0,0,0-32.35,32.35V346.58a32.35,32.35,0,1,0,64.7,0V130.94a32.4,32.4,0,0,0-32.35-32.35Z"/><line class="cls-3" x1="150.86" y1="308.55" x2="150.86" y2="168.97"/><path class="cls-2" d="M441.83,187.68a51.08,51.08,0,1,1-51.08,51.08,51.14,51.14,0,0,1,51.08-51.08m0-19a70.08,70.08,0,1,0,70.09,70.08,70.08,70.08,0,0,0-70.09-70.08Z"/><line class="cls-3" x1="399.22" y1="281.37" x2="484.45" y2="196.15"/></g></g></g></svg>