<svg xmlns="http://www.w3.org/2000/svg" viewBox="0 0 512 512"><defs><style>.cls-1{fill:#355e70;}.cls-2{fill:#ebebeb;}.cls-3{fill:#d7d7d7;}.cls-4{fill:#ff5050;}.cls-5{fill:#eb3c3c;}.cls-6{fill:#55a2e0;}.cls-7{fill:#418ecc;}.cls-8{fill:none;stroke:#000;stroke-miterlimit:10;stroke-width:19px;}</style></defs><title>noiseLoud</title><g id="noise"><g id="noiseLoud"><path class="cls-1" d="M115.3,412.56a22.8,22.8,0,0,1-22.55-19.05l-17-102.75,45-2.61,16.57,98.39a22.36,22.36,0,0,1-22,26Z"/><path d="M112.82,298.13l15.15,90a12.85,12.85,0,0,1-12.67,15,13.64,13.64,0,0,1-3.1-.35A13.38,13.38,0,0,1,102.12,392L86.88,299.63l25.94-1.5m15.9-19.95-64,3.71L83.38,395.1a32.33,32.33,0,0,0,24.44,26.09A31.91,31.91,0,0,0,146.71,385l-18-106.79Z"/><path class="cls-2" d="M287.52,137.12V340.4a10.77,10.77,0,0,1-14.3,10.21C230.74,336,204,325.23,151,318.33l-7.19-14.88V174.07L151,159.19c52.9-6.9,79.14-17.47,122.27-32.28A10.77,10.77,0,0,1,287.52,137.12Z"/><path class="cls-3" d="M287.52,238.76V340.4a10.77,10.77,0,0,1-14.3,10.21C230.74,336,204,325.23,151,318.33l-7.19-14.88V238.76Z"/><path class="cls-4" d="M53.91,292.67a53.91,53.91,0,0,1,0-107.82,10.78,10.78,0,0,1,10.78,10.78v86.26A10.78,10.78,0,0,1,53.91,292.67Z"/><path class="cls-5" d="M0,238.76a54,54,0,0,0,53.91,53.91,10.78,10.78,0,0,0,10.78-10.78V238.76Z"/><path d="M45.69,204.83v67.86a34.91,34.91,0,0,1,0-67.86m8.22-20a53.91,53.91,0,0,0,0,107.82,10.78,10.78,0,0,0,10.78-10.78V195.63a10.78,10.78,0,0,0-10.78-10.78Z"/><path class="cls-6" d="M151,159.19V318.33c-34.79-4.53-56.5-4.09-75.48-4.09a32.39,32.39,0,0,1-32.34-32.35V195.63a32.39,32.39,0,0,1,32.34-32.34C94.16,163.29,116.09,163.72,151,159.19Z"/><path class="cls-7" d="M151,238.76v79.57c-34.79-4.53-56.5-4.09-75.48-4.09a32.39,32.39,0,0,1-32.34-32.35V238.76Z"/><path d="M268.52,148.64V328.88l-3-1c-35.29-12.28-63.18-22-112.15-28.35a493.12,493.12,0,0,0-68.57-4.27H75.47a13.36,13.36,0,0,1-13.34-13.35V195.63a13.36,13.36,0,0,1,13.34-13.34h9.26A495,495,0,0,0,153.41,178c48.92-6.38,76.82-16.08,112.14-28.36l3-1m8.26-22.33a10.91,10.91,0,0,0-3.56.6c-43.13,14.81-69.37,25.38-122.27,32.28a476.68,476.68,0,0,1-66.22,4.11H75.47a32.39,32.39,0,0,0-32.34,32.34v86.26a32.39,32.39,0,0,0,32.34,32.35l9.36,0A474,474,0,0,1,151,318.33c53.05,6.9,79.79,17.69,122.27,32.28a10.91,10.91,0,0,0,3.56.6,10.79,10.79,0,0,0,10.74-10.81V137.12a10.79,10.79,0,0,0-10.74-10.81Z"/><path class="cls-6" d="M298.3,98.59A32.39,32.39,0,0,0,266,130.94V346.58a32.35,32.35,0,1,0,64.69,0V130.94A32.4,32.4,0,0,0,298.3,98.59Z"/><path class="cls-7" d="M330.65,238.76V346.58a32.35,32.35,0,1,1-64.69,0V238.76Z"/><path d="M298.3,117.59a13.37,13.37,0,0,1,13.35,13.35V346.58a13.35,13.35,0,1,1-26.69,0V130.94a13.36,13.36,0,0,1,13.34-13.35m0-19A32.39,32.39,0,0,0,266,130.94V346.58a32.35,32.35,0,1,0,64.69,0V130.94A32.4,32.4,0,0,0,298.3,98.59Z"/><line class="cls-8" x1="150.95" y1="308.55" x2="150.95" y2="168.97"/><path class="cls-4" d="M456.36,128.93l-11.23,15.3a119.06,119.06,0,0,1,13.49,11.61,117.26,117.26,0,0,1,0,165.84A120,120,0,0,1,449.4,330l11.93,14.77a136.26,136.26,0,0,0-5-215.83Z"/><path class="cls-4" d="M439.19,238.76A75.66,75.66,0,0,1,411,297.67l12,14.81a94.76,94.76,0,0,0-3.45-150.1l-11.27,15.34A75.73,75.73,0,0,1,439.19,238.76Z"/><path class="cls-4" d="M385.2,238.76a33.31,33.31,0,0,1-12.41,25.93l11.95,14.79a52.33,52.33,0,0,0-1.91-82.91L371.58,211.9A33.31,33.31,0,0,1,385.2,238.76Z"/></g></g></svg>