<svg xmlns="http://www.w3.org/2000/svg" viewBox="0 0 512 512"><defs><style>.cls-1{fill:#55a2e0;}.cls-2{fill:#b8dfff;}.cls-3{fill:#ff5050;}</style></defs><title>size100</title><g id="size"><g id="size100"><path class="cls-1" d="M493,256c0,130.89-106.11,237-237,237S19,386.89,19,256,125.11,19,256,19,493,125.11,493,256Zm0,0"/><path class="cls-2" d="M147.08,427.41A203.15,203.15,0,0,1,52.86,256C52.86,144,144,52.86,256,52.86S459.14,144,459.14,256,368,459.14,256,459.14A201.89,201.89,0,0,1,163.75,437"/><path class="cls-3" d="M222.74,130.36A18.79,18.79,0,1,1,204,111.58a18.78,18.78,0,0,1,18.78,18.78Zm0,0"/><path class="cls-3" d="M326.83,381.63A18.79,18.79,0,1,1,308,362.85a18.78,18.78,0,0,1,18.79,18.78Zm0,0"/><path class="cls-3" d="M326.83,130.36A18.79,18.79,0,1,1,308,111.58a18.78,18.78,0,0,1,18.79,18.78Zm0,0"/><path class="cls-3" d="M222.74,381.63A18.79,18.79,0,1,1,204,362.85a18.78,18.78,0,0,1,18.78,18.78Zm0,0"/><path class="cls-3" d="M400.41,204a18.78,18.78,0,1,1-18.78-18.79A18.78,18.78,0,0,1,400.41,204Zm0,0"/><path class="cls-3" d="M149.14,308a18.78,18.78,0,1,1-18.78-18.78A18.78,18.78,0,0,1,149.14,308Zm0,0"/><path class="cls-3" d="M400.41,308a18.78,18.78,0,1,1-18.78-18.78A18.78,18.78,0,0,1,400.41,308Zm0,0"/><path class="cls-3" d="M149.14,204a18.78,18.78,0,1,1-18.78-18.79A18.78,18.78,0,0,1,149.14,204Zm0,0"/><path d="M256,45.6C140,45.6,45.6,140,45.6,256A210.2,210.2,0,0,0,72.41,358.71a212.53,212.53,0,0,0,70.77,74.82L151,421.3a200.13,200.13,0,0,1-28.23-21.79l126-126V451.75a193.24,193.24,0,0,1-81.7-21.24l-6.61,12.91a207.74,207.74,0,0,0,95.56,23C372,466.4,466.4,372,466.4,256S372,45.6,256,45.6Zm7.25,14.66a195.11,195.11,0,0,1,126,52.26l-126,126Zm-14.5,178.22-126-126a195.16,195.16,0,0,1,126-52.26Zm-10.27,10.27H60.26a195.16,195.16,0,0,1,52.26-126Zm35,14.5H451.74a195.12,195.12,0,0,1-52.27,126ZM389.21,399.47a195.12,195.12,0,0,1-126,52.27V273.52ZM273.52,248.75l126-126a195.17,195.17,0,0,1,52.27,126ZM60.25,263.25H238.48l-126,126a194.8,194.8,0,0,1-52.22-126Zm0,0"/><path d="M179.9,140.32a26.05,26.05,0,1,0,14.09-34,26,26,0,0,0-14.09,34Zm19.65-20.61a11.53,11.53,0,1,1-6.24,15.07,11.52,11.52,0,0,1,6.24-15.07Zm0,0"/><path d="M284,391.6a26,26,0,1,0,0-19.93,26,26,0,0,0,0,19.93Zm13.4-14.38a11.54,11.54,0,1,1,0,8.83,11.52,11.52,0,0,1,0-8.83Zm0,0"/><path d="M318,106.31a25.67,25.67,0,0,0-10-2,26.06,26.06,0,1,0,10,2Zm.69,28.47a11.53,11.53,0,1,1-10.64-16,11.33,11.33,0,0,1,4.4.88,11.53,11.53,0,0,1,6.24,15.07Zm0,0"/><path d="M204,407.68a26.05,26.05,0,1,0-10-2,25.95,25.95,0,0,0,10,2Zm-10.64-30.46A11.53,11.53,0,1,1,204,393.17a11.34,11.34,0,0,1-4.4-.89,11.52,11.52,0,0,1-6.24-15.06Zm0,0"/><path d="M381.63,177.91A26,26,0,1,0,405.69,194a25.85,25.85,0,0,0-24.06-16.08Zm4.42,36.7A11.5,11.5,0,0,1,371,208.37a11.54,11.54,0,0,1,6.24-15.06,11.48,11.48,0,0,1,15.06,6.24,11.53,11.53,0,0,1-6.23,15.06Zm0,0"/><path d="M130.37,334.08A26,26,0,1,0,106.31,318a25.91,25.91,0,0,0,24.06,16.08Zm-10.66-30.45a11.53,11.53,0,1,1,0,8.82,11.48,11.48,0,0,1,0-8.82Zm0,0"/><path d="M391.6,284a26,26,0,1,0,14.09,34,25.84,25.84,0,0,0-14.09-34Zm.68,28.47a11.53,11.53,0,1,1-10.64-15.95,11.53,11.53,0,0,1,10.64,15.95Zm0,0"/><path d="M106.31,213.93a26.05,26.05,0,1,0,0-19.94,25.87,25.87,0,0,0,0,19.94Zm13.4-14.39a11.53,11.53,0,1,1,10.65,16,11.55,11.55,0,0,1-10.65-16Zm0,0"/><path d="M256,19a237.07,237.07,0,0,1,92.24,455.38A237.07,237.07,0,0,1,163.75,37.61,235.56,235.56,0,0,1,256,19m0-19C114.61,0,0,114.61,0,256S114.61,512,256,512,512,397.38,512,256,397.38,0,256,0Z"/></g></g></svg>