<svg xmlns="http://www.w3.org/2000/svg" viewBox="0 0 512 512"><defs><style>.cls-1{fill:#55a2e0;}.cls-2{fill:#fff;}</style></defs><title>size60_selected</title><g id="size"><g id="selected-4" data-name="selected"><g id="size60_selected"><path class="cls-1" d="M263.26,253V19.12c-2.41-.07-4.83-.12-7.26-.12C125.11,19,19,125.11,19,256S125.11,493,256,493a236.31,236.31,0,0,0,172.63-74.63Z"/><path class="cls-1" d="M263.26,253V53c-2.41-.08-4.83-.14-7.26-.14C144,52.86,52.86,144,52.86,256a203.17,203.17,0,0,0,94.22,171.41L163.75,437a202.85,202.85,0,0,0,240.86-42.62Z"/><path class="cls-1" d="M222.74,130.36A18.79,18.79,0,1,1,204,111.58a18.78,18.78,0,0,1,18.78,18.78Zm0,0"/><path class="cls-1" d="M326.83,381.63a18.79,18.79,0,1,1-18.78-18.78,18.78,18.78,0,0,1,18.78,18.78Zm0,0"/><path class="cls-1" d="M222.74,381.63A18.79,18.79,0,1,1,204,362.85a18.78,18.78,0,0,1,18.78,18.78Zm0,0"/><path class="cls-1" d="M149.15,308.05a18.79,18.79,0,1,1-18.79-18.79,18.78,18.78,0,0,1,18.79,18.79Zm0,0"/><path class="cls-1" d="M149.15,204a18.79,18.79,0,1,1-18.79-18.79A18.78,18.78,0,0,1,149.15,204Zm0,0"/><path class="cls-2" d="M399.48,389.22h0l-.12-.12L263.26,253V45.74c-2.41-.08-4.83-.14-7.26-.14C140,45.6,45.6,140,45.6,256A210.18,210.18,0,0,0,72.42,358.71a212.42,212.42,0,0,0,70.76,74.82L151,421.3a200,200,0,0,1-28.22-21.79l126-126V451.75a193,193,0,0,1-81.69-21.24l-6.61,12.92a210.12,210.12,0,0,0,249.29-43.95Zm-287,0a194.74,194.74,0,0,1-52.21-126H238.49ZM60.26,248.75a195.12,195.12,0,0,1,52.27-126l126,126Zm188.49-10.27-126-126a195.16,195.16,0,0,1,126-52.26Zm14.51,213.26V273.52l126,126A195.18,195.18,0,0,1,263.26,451.74Z"/><path class="cls-2" d="M179.91,140.33a26.05,26.05,0,1,0,14.09-34,25.95,25.95,0,0,0-14.09,34Zm19.64-20.62a11.53,11.53,0,1,1-6.24,15.07,11.56,11.56,0,0,1,6.24-15.07Zm0,0"/><path class="cls-2" d="M284,391.6a26,26,0,1,0,0-19.93,26,26,0,0,0,0,19.93Zm13.41-14.38a11.53,11.53,0,0,1,21.3,0,11.53,11.53,0,1,1-21.3,0Zm0,0"/><path class="cls-2" d="M204,407.68a26.05,26.05,0,1,0-10-2,26,26,0,0,0,10,2Zm-10.64-30.46a11.54,11.54,0,1,1,6.24,15.07,11.51,11.51,0,0,1-6.24-15.07Zm0,0"/><path class="cls-2" d="M130.37,334.08A26,26,0,1,0,106.31,318a25.84,25.84,0,0,0,24.06,16.07Zm-10.66-30.45a11.54,11.54,0,1,1,0,8.82,11.43,11.43,0,0,1,0-8.82Zm0,0"/><path class="cls-2" d="M106.31,213.93a26,26,0,1,0,0-19.94,25.89,25.89,0,0,0,0,19.94Zm13.4-14.38a11.53,11.53,0,1,1,0,8.82,11.51,11.51,0,0,1,0-8.82Zm0,0"/><path class="cls-2" d="M428.63,418.37c-1.65,1.75-3.33,3.5-5,5.21A237.07,237.07,0,1,1,256,19c2.43,0,4.84,0,7.26.12V.1C260.85,0,258.43,0,256,0,114.62,0,0,114.61,0,256S114.62,512,256,512a255.3,255.3,0,0,0,186.08-80.19Z"/></g></g></g></svg>