<svg xmlns="http://www.w3.org/2000/svg" viewBox="0 0 512 512"><defs><style>.cls-1{fill:#55a2e0;}.cls-2{fill:#b8dfff;}.cls-3{fill:#ff5050;}</style></defs><title>size80</title><g id="size"><g id="size80"><path class="cls-1" d="M419.25,83.37,264.14,238.48V19.12q-3.61-.12-7.25-.12c-130.9,0-237,106.11-237,237S126,493,256.89,493s237-106.11,237-237A236.34,236.34,0,0,0,419.25,83.37Z"/><path class="cls-2" d="M395.23,107.39,264.14,238.48V53c-2.41-.09-4.82-.14-7.25-.14C144.87,52.86,53.74,144,53.74,256A203.17,203.17,0,0,0,148,427.41L164.64,437a201.82,201.82,0,0,0,92.25,22.18C368.9,459.14,460,368,460,256A202.61,202.61,0,0,0,395.23,107.39Z"/><path class="cls-3" d="M223.63,130.36a18.79,18.79,0,1,1-18.79-18.78,18.78,18.78,0,0,1,18.79,18.78Zm0,0"/><path class="cls-3" d="M327.71,381.63a18.78,18.78,0,1,1-18.78-18.78,18.77,18.77,0,0,1,18.78,18.78Zm0,0"/><path class="cls-3" d="M223.63,381.63a18.79,18.79,0,1,1-18.79-18.78,18.78,18.78,0,0,1,18.79,18.78Zm0,0"/><path class="cls-3" d="M401.3,204a18.79,18.79,0,1,1-18.78-18.79A18.78,18.78,0,0,1,401.3,204Zm0,0"/><path class="cls-3" d="M150,308a18.79,18.79,0,1,1-18.78-18.78A18.78,18.78,0,0,1,150,308Zm0,0"/><path class="cls-3" d="M401.3,308a18.79,18.79,0,1,1-18.78-18.78A18.78,18.78,0,0,1,401.3,308Zm0,0"/><path class="cls-3" d="M150,204a18.79,18.79,0,1,1-18.78-18.79A18.78,18.78,0,0,1,150,204Zm0,0"/><path d="M400.36,102.26,390.1,112.52l-126,126V45.74q-3.61-.14-7.25-.14C140.87,45.6,46.48,140,46.48,256A210.21,210.21,0,0,0,73.3,358.71a212.42,212.42,0,0,0,70.76,74.82l7.8-12.23a200.62,200.62,0,0,1-28.22-21.79l126-126V451.75a193.2,193.2,0,0,1-81.69-21.24l-6.61,12.91a207.71,207.71,0,0,0,95.56,23c116,0,210.39-94.39,210.39-210.4A209.86,209.86,0,0,0,400.36,102.26Zm-287,287a194.74,194.74,0,0,1-52.21-126H239.37ZM61.15,248.75a195.11,195.11,0,0,1,52.26-126l126,126Zm188.48-10.27-126-126a195.13,195.13,0,0,1,126-52.26Zm14.51,213.26V273.52l126,126A195.12,195.12,0,0,1,264.14,451.74Zm136.22-62.53-126-126H452.63A195.12,195.12,0,0,1,400.36,389.21Zm-126-140.46,126-126a195.17,195.17,0,0,1,52.27,126Z"/><path d="M180.79,140.32a26.05,26.05,0,1,0,14.09-34,26,26,0,0,0-14.09,34Zm19.64-20.61a11.53,11.53,0,1,1-6.24,15.07,11.61,11.61,0,0,1,6.24-15.07Zm0,0"/><path d="M284.87,391.6a26,26,0,1,0,0-19.93,26,26,0,0,0,0,19.93Zm13.4-14.38a11.54,11.54,0,1,1,0,8.83,11.5,11.5,0,0,1,0-8.83Zm0,0"/><path d="M204.84,407.68a26.06,26.06,0,1,0-10-2,26,26,0,0,0,10,2Zm-10.65-30.46a11.56,11.56,0,1,1,6.24,15.06,11.51,11.51,0,0,1-6.24-15.06Zm0,0"/><path d="M382.51,177.91A26,26,0,1,0,406.58,194a25.84,25.84,0,0,0-24.07-16.08Zm4.42,36.7a11.38,11.38,0,0,1-4.4.89,11.56,11.56,0,1,1,4.4-.89Zm0,0"/><path d="M131.26,334.08A26,26,0,1,0,107.19,318a25.91,25.91,0,0,0,24.07,16.08ZM120.6,303.63a11.47,11.47,0,0,1,6.23-6.25,11.53,11.53,0,0,1,8.83,21.31,11.37,11.37,0,0,1-4.4.88,11.53,11.53,0,0,1-10.66-15.94Zm0,0"/><path d="M392.49,284a26,26,0,1,0,14.09,34,25.91,25.91,0,0,0-14.09-34Zm.68,28.47a11.49,11.49,0,0,1-10.66,7.12,11.33,11.33,0,0,1-4.4-.88,11.53,11.53,0,1,1,15.06-6.24Zm0,0"/><path d="M107.19,213.93a26.05,26.05,0,1,0,0-19.94,25.86,25.86,0,0,0,0,19.94Zm13.41-14.39a11.5,11.5,0,0,1,10.66-7.12,11.38,11.38,0,0,1,4.4.89,11.54,11.54,0,0,1-4.42,22.19,11.55,11.55,0,0,1-10.64-16Zm0,0"/><path d="M432.41,70.22,419,83.66c1.65,1.56,3.29,3.14,4.9,4.75A237.31,237.31,0,1,1,256.28,19q3.95,0,7.86.14V.13C261.53.05,258.91,0,256.28,0,114.9,0,.28,114.61.28,256s114.62,256,256,256,256-114.62,256-256A255.28,255.28,0,0,0,432.41,70.22Z"/></g></g></svg>