<svg xmlns="http://www.w3.org/2000/svg" viewBox="0 0 512 512"><defs><style>.cls-1{fill:#b8dfff;}.cls-2{fill:none;stroke:#418ecc;stroke-linecap:round;stroke-miterlimit:10;stroke-width:19px;}.cls-3{fill:#505050;}</style></defs><title>tactilityClicky</title><g id="tactility"><g id="tactilityClicky"><path class="cls-1" d="M512.59,483.16H30.11V338.27s-10-12,50.45-21.74S161.81,312.07,186,277s46-75.11,72.82-59.94,33.9,59.72,60.32,56S466.42,238,466.42,238s18.91-5.54,21.08-57.28S487.5,1,487.5,1H512Z"/><path class="cls-2" d="M30.11,351.34S38.64,322,54.61,320s93.89-12.78,104.75-17.89c33.21-16,49.81-81.47,86.87-88.36,27.14-5,39,68.24,85,58.66,34.88-7.27,101.13-22.89,135.24-34.49,11.91-4.05,17.39-11.58,18.2-17.73C485.58,159.4,487.5,10,487.5,10"/><rect class="cls-3" x="20.61" width="19" height="512"/><rect class="cls-3" x="0.59" y="472.98" width="512" height="19"/></g></g></svg>