<svg xmlns="http://www.w3.org/2000/svg" viewBox="0 0 512 512"><defs><style>.cls-1,.cls-3{fill:#fff;}.cls-1{fill-opacity:0.4;}.cls-2{fill:none;stroke:#fff;stroke-linecap:round;stroke-miterlimit:10;stroke-width:19px;}</style></defs><title>tactilityClicky_selected</title><g id="tactility"><g id="selected-3" data-name="selected"><g id="tactilityClicky_copy" data-name="tactilityClicky copy"><path class="cls-1" d="M512,483.16H29.52V338.27s-10-12,50.45-21.74,81.24-4.46,105.42-39.5,46-75.11,72.82-59.94,33.9,59.72,60.31,56S465.83,238,465.83,238s18.91-5.54,21.08-57.28S486.91,1,486.91,1h24.5Z"/><path class="cls-2" d="M29.52,351.34S38.05,322,54,320s93.89-12.78,104.75-17.89c33.21-16,49.81-81.47,86.86-88.36,27.15-5,39,68.24,85,58.66,34.88-7.27,101.12-22.89,135.24-34.49,11.91-4.05,17.39-11.58,18.2-17.73C485,159.4,486.91,10,486.91,10"/><rect class="cls-3" x="20.02" width="19" height="512"/><rect class="cls-3" y="472.98" width="512" height="19"/></g></g></g></svg>