<svg xmlns="http://www.w3.org/2000/svg" viewBox="0 0 512 512"><defs><style>.cls-1{fill:#b8dfff;}.cls-2{fill:none;stroke:#418ecc;stroke-linecap:round;stroke-miterlimit:10;stroke-width:19px;}.cls-3{fill:#505050;}</style></defs><title>tactilityBumpy</title><g id="tactility"><g id="tactilityTactile"><path class="cls-1" d="M512.28,482.48H29.8V335.94s7.59-24.9,34.89-26.45,87.37-37.07,100.84-52.81,30.09-1.67,48.8,18.22S254,335.27,287,301.1s32-29.81,94-36,126.55-22.85,131.26-22.85V487.94"/><path class="cls-2" d="M29.92,361.44s-3.3-44.12,25.47-49.88,78.5-22.22,114.47-59.16c23-23.35,60.77,59.16,92.1,59.16s33.91-35.82,67.16-40.93,160.16-12.78,174.55-23"/><rect class="cls-3" x="20.3" y="0.68" width="19" height="512"/><rect class="cls-3" x="0.28" y="473.66" width="512" height="19"/></g></g></svg>