<?xml version="1.0" encoding="utf-8"?>
<!-- Generator: Adobe Illustrator 22.0.0, SVG Export Plug-In . SVG Version: 6.00 Build 0)  -->
<svg version="1.1" id="Capa_1" xmlns="http://www.w3.org/2000/svg" xmlns:xlink="http://www.w3.org/1999/xlink" x="0px" y="0px"
	 viewBox="0 0 436 326.1" style="enable-background:new 0 0 436 326.1;" xml:space="preserve">
<style type="text/css">
	.st0{fill:#CCCCCC;}
	.st1{fill:#4D4D4D;}
	.st2{fill:#66645D;}
</style>
<g>
	<path class="st0" d="M416.7,326.1H19.3C8.6,326.1,0,317.5,0,306.8V155.5c0-10.7,8.6-19.3,19.3-19.3h397.4
		c10.7,0,19.3,8.6,19.3,19.3v151.4C436,317.5,427.4,326.1,416.7,326.1z"/>
	<g>
		<path class="st1" d="M400.6,213.3H379c-2.5,0-4.4,2-4.4,4.4v26.8c0,2.5,2,4.4,4.4,4.4h21.5c2.5,0,4.4-2,4.4-4.4v-26.8
			C405,215.3,403,213.3,400.6,213.3z"/>
		<path class="st1" d="M405,201.9v-30.3c0-2.5-2-4.4-4.4-4.4H379c-2.5,0-4.4,2-4.4,4.4v30.3c0,2.5,2,4.4,4.4,4.4h21.5
			C403,206.3,405,204.3,405,201.9z"/>
		<path class="st1" d="M342.5,249h20.6c2.5,0,4.4-2,4.4-4.4v-26.8c0-2.5-2-4.4-4.4-4.4h-20.6c-2.5,0-4.4,2-4.4,4.4v26.8
			C338.1,247,340,249,342.5,249z"/>
		<path class="st1" d="M342.5,295.1h20.6c2.5,0,4.4-2,4.4-4.4v-30.3c0-2.5-2-4.4-4.4-4.4h-20.6c-2.5,0-4.4,2-4.4,4.4v30.3
			C338.1,293.2,340,295.1,342.5,295.1z"/>
		<path class="st1" d="M342.5,206.3h20.6c2.5,0,4.4-2,4.4-4.4v-30.3c0-2.5-2-4.4-4.4-4.4h-20.6c-2.5,0-4.4,2-4.4,4.4v30.3
			C338.1,204.3,340,206.3,342.5,206.3z"/>
		<path class="st1" d="M374.6,260.4v30.3c0,2.5,2,4.4,4.4,4.4h21.5c2.5,0,4.4-2,4.4-4.4v-30.3c0-2.5-2-4.4-4.4-4.4H379
			C376.5,256,374.6,258,374.6,260.4z"/>
	</g>
	<g>
		<path class="st1" d="M118.6,290.9v-30.6c0-2.4-1.9-4.3-4.3-4.3h-31c-2.4,0-4.3,1.9-4.3,4.3v30.6c0,2.4,1.9,4.3,4.3,4.3h31
			C116.7,295.1,118.6,293.2,118.6,290.9z"/>
		<path class="st1" d="M139.8,213.3h-31c-2.4,0-4.3,1.9-4.3,4.3v27.1c0,2.4,1.9,4.3,4.3,4.3h31c2.4,0,4.3-1.9,4.3-4.3v-27.1
			C144.1,215.2,142.2,213.3,139.8,213.3z"/>
		<path class="st1" d="M207.3,256h-77.4c-2.4,0-4.3,1.9-4.3,4.3v30.6c0,2.4,1.9,4.3,4.3,4.3h77.4c2.4,0,4.3-1.9,4.3-4.3v-30.6
			C211.6,257.9,209.6,256,207.3,256z"/>
		<path class="st1" d="M61.1,217.6v27.1c0,2.4,1.9,4.3,4.3,4.3h28c2.4,0,4.3-1.9,4.3-4.3v-27.1c0-2.4-1.9-4.3-4.3-4.3H65.3
			C63,213.3,61.1,215.2,61.1,217.6z"/>
		<path class="st1" d="M151.1,217.6v27.1c0,2.4,1.9,4.3,4.3,4.3h30.9c2.4,0,4.3-1.9,4.3-4.3v-27.1c0-2.4-1.9-4.3-4.3-4.3h-30.9
			C153,213.3,151.1,215.2,151.1,217.6z"/>
		<path class="st1" d="M302.5,202v-30.6c0-2.4-1.9-4.3-4.3-4.3h-28.9c-2.4,0-4.3,1.9-4.3,4.3V202c0,2.4,1.9,4.3,4.3,4.3h28.9
			C300.6,206.3,302.5,204.4,302.5,202z"/>
		<path class="st1" d="M222.8,295.1h31c2.4,0,4.3-1.9,4.3-4.3v-30.6c0-2.4-1.9-4.3-4.3-4.3h-31c-2.4,0-4.3,1.9-4.3,4.3v30.6
			C218.6,293.2,220.5,295.1,222.8,295.1z"/>
		<path class="st1" d="M118.6,202v-30.6c0-2.4-1.9-4.3-4.3-4.3h-31c-2.4,0-4.3,1.9-4.3,4.3V202c0,2.4,1.9,4.3,4.3,4.3h31
			C116.7,206.3,118.6,204.4,118.6,202z"/>
		<path class="st1" d="M35.3,249h14.5c2.4,0,4.3-1.9,4.3-4.3v-27.1c0-2.4-1.9-4.3-4.3-4.3H35.3c-2.4,0-4.3,1.9-4.3,4.3v27.1
			C31,247.1,32.9,249,35.3,249z"/>
		<path class="st1" d="M35.3,295.1h32.5c2.4,0,4.3-1.9,4.3-4.3v-30.6c0-2.4-1.9-4.3-4.3-4.3H35.3c-2.4,0-4.3,1.9-4.3,4.3v30.6
			C31,293.2,32.9,295.1,35.3,295.1z"/>
		<path class="st1" d="M35.3,206.3h32.5c2.4,0,4.3-1.9,4.3-4.3v-30.6c0-2.4-1.9-4.3-4.3-4.3H35.3c-2.4,0-4.3,1.9-4.3,4.3V202
			C31,204.4,32.9,206.3,35.3,206.3z"/>
		<path class="st1" d="M165.1,202v-30.6c0-2.4-1.9-4.3-4.3-4.3h-31c-2.4,0-4.3,1.9-4.3,4.3V202c0,2.4,1.9,4.3,4.3,4.3h31
			C163.2,206.3,165.1,204.4,165.1,202z"/>
		<path class="st1" d="M265.1,260.3v30.6c0,2.4,1.9,4.3,4.3,4.3h28.9c2.4,0,4.3-1.9,4.3-4.3v-30.6c0-2.4-1.9-4.3-4.3-4.3h-28.9
			C267,256,265.1,257.9,265.1,260.3z"/>
		<path class="st1" d="M232.8,213.3h-31c-2.4,0-4.3,1.9-4.3,4.3v27.1c0,2.4,1.9,4.3,4.3,4.3h31c2.4,0,4.3-1.9,4.3-4.3v-27.1
			C237.1,215.2,235.1,213.3,232.8,213.3z"/>
		<path class="st1" d="M211.6,202v-30.6c0-2.4-1.9-4.3-4.3-4.3h-30.9c-2.4,0-4.3,1.9-4.3,4.3V202c0,2.4,1.9,4.3,4.3,4.3h30.9
			C209.6,206.3,211.6,204.4,211.6,202z"/>
		<path class="st1" d="M298.2,213.3h-49.9c-2.4,0-4.3,1.9-4.3,4.3v27.1c0,2.4,1.9,4.3,4.3,4.3h49.9c2.4,0,4.3-1.9,4.3-4.3v-27.1
			C302.5,215.2,300.6,213.3,298.2,213.3z"/>
		<path class="st1" d="M258.1,202v-30.6c0-2.4-1.9-4.3-4.3-4.3h-31c-2.4,0-4.3,1.9-4.3,4.3V202c0,2.4,1.9,4.3,4.3,4.3h31
			C256.1,206.3,258.1,204.4,258.1,202z"/>
	</g>
	<path class="st2" d="M66.1,136.1h-20V112c0-17.9,14.6-32.5,32.5-32.5h271.5c6.9,0,12.5-5.6,12.5-12.5s-5.6-12.5-12.5-12.5h-276
		c-17.9,0-32.5-14.6-32.5-32.5V1h20v21c0,6.9,5.6,12.5,12.5,12.5h276c17.9,0,32.5,14.6,32.5,32.5S368,99.5,350.1,99.5H78.6
		c-6.9,0-12.5,5.6-12.5,12.5V136.1z"/>
</g>
</svg>
